<?xml version="1.0" standalone="no"?>
<!DOCTYPE svg PUBLIC "-//W3C//DTD SVG 20010904//EN"
 "http://www.w3.org/TR/2001/REC-SVG-20010904/DTD/svg10.dtd">
<svg version="1.0" xmlns="http://www.w3.org/2000/svg"
 width="200.000000pt" height="200.000000pt" viewBox="0 0 200.000000 200.000000"
 preserveAspectRatio="xMidYMid meet">

<g transform="translate(0.000000,200.000000) scale(0.100000,-0.100000)"
fill="#000000" stroke="none">
<path d="M854 1881 c-25 -15 -54 -63 -54 -87 0 -2 90 -4 200 -4 110 0 200 2
200 5 0 25 -34 77 -59 89 -47 25 -245 22 -287 -3z"/>
<path d="M360 1688 c-51 -26 -90 -78 -90 -119 l0 -29 730 0 730 0 0 29 c0 41
-39 93 -90 119 l-44 22 -596 0 -596 0 -44 -22z"/>
<path d="M412 833 c38 -340 74 -631 80 -646 6 -16 27 -40 46 -55 l35 -27 416
-3 c416 -2 416 -2 456 21 23 13 47 37 57 57 12 25 36 205 86 653 l68 617 -656
0 -656 0 68 -617z m271 492 c18 -18 20 -31 57 -540 35 -468 35 -459 14 -479
-23 -24 -71 -20 -88 7 -10 16 -24 158 -49 502 -31 421 -33 483 -21 503 17 26
65 30 87 7z m361 -7 c14 -20 16 -85 16 -507 0 -437 -2 -486 -17 -503 -20 -22
-61 -23 -85 -1 -17 15 -18 44 -18 506 0 442 2 492 17 509 23 25 68 23 87 -4z
m362 -8 c16 -35 -52 -964 -72 -997 -17 -27 -65 -31 -88 -7 -21 20 -21 11 14
479 38 512 39 522 57 541 24 23 75 14 89 -16z"/>
</g>
</svg>
